<svg width="124" height="25" viewBox="0 0 124 25" fill="none" xmlns="http://www.w3.org/2000/svg">
<path d="M19.2713 0.00413593C20.9232 -0.0226046 22.7105 0.0692941 24.3006 0.607225C27.3825 1.64993 30.786 3.39509 32.8793 5.91437C34.1248 7.41334 34.449 9.35202 34.1961 11.2227C33.8273 14.3678 31.5833 17.0797 29.1055 18.9572C23.4828 23.1394 16.4283 24.9587 9.4655 24.0221C5.92623 23.547 2.64129 22.0031 0.626941 19.0313C0.44909 18.7689 -0.112275 18.1211 0.0199644 17.7986C0.271682 17.1847 1.44992 16.4606 1.98892 16.0567C2.40337 15.6955 2.85088 15.3735 3.32562 15.0947C3.85118 15.2856 4.3554 15.6672 4.85477 15.9282C6.30366 16.7006 7.64827 17.2843 9.31622 17.3418C12.1188 17.4384 14.0962 15.0876 15.8991 13.2294C17.2818 11.8049 18.6525 10.3689 20.011 8.92144C20.8313 8.03681 21.763 6.9366 22.6154 6.12073C20.8883 5.02733 16.873 4.30889 14.9031 4.95065C14.3081 5.58932 13.6549 6.56942 13.1276 7.3049L10.454 11.0559C10.02 11.673 9.60469 12.2926 9.12922 12.8812C8.76798 13.3284 8.40425 13.2652 7.80627 13.31C7.94496 12.51 8.37792 11.6278 8.71482 10.8595C9.33776 9.43908 10.1874 7.26277 11.0803 6.06469C11.9648 4.87799 13.4878 3.50754 14.5691 2.4909C15.2573 1.84374 16.1634 0.818054 16.8608 0.263824C17.689 0.168817 18.4328 0.0473607 19.2713 0.00413593ZM12.2693 19.1889C14.3976 19.7105 16.3262 20.2901 18.5502 20.2515C25.5972 20.2582 34.6696 16.6235 27.3017 8.94307C26.4596 8.06529 24.9104 7.01421 23.7654 6.59302C21.3184 10.2753 19.3223 13.0227 15.9902 16.0783C15.3084 16.7028 14.6068 17.3055 13.8865 17.8858C13.3118 18.3435 12.8072 18.6823 12.2693 19.1889Z" fill="#FEF5DE"/>
<path d="M95.6143 6.66469C96.751 6.6152 98.7984 7.22118 99.5803 8.05627C101.021 9.6337 100.355 12.2732 100.278 14.2136C100.254 14.795 100.355 16.9313 99.914 17.1981C99.1277 17.6744 96.4921 19.7597 95.7127 19.7284C95.5496 19.5245 95.6579 19.1663 95.6598 18.9302C95.6853 15.8359 96.9309 12.0883 94.3954 9.73206C93.5613 11.3789 93.7194 11.2848 93.7182 13.0216C93.7175 14.3213 93.8433 16.8003 93.5046 17.9951C92.5472 18.0749 90.2769 18.486 89.3892 18.8309C89.2759 17.8405 89.2996 15.5319 89.2641 14.3733C89.0991 12.7265 88.8582 11.0643 88.0042 9.62814C86.8096 11.2418 87.1787 11.7788 87.1806 13.6615C87.1818 15.1097 87.3269 16.6208 87.269 18.0557C85.5938 18.0947 83.8259 18.4384 82.1625 18.5419C82.1638 18.0434 82.2142 17.4298 82.2553 16.9268C82.5043 13.8773 82.4115 10.7967 82.5485 7.75093C83.8944 7.34383 85.4108 7.10472 86.9397 6.64269C86.9658 6.93147 86.9596 8.382 87.0293 8.4798C87.5771 8.5199 88.692 6.70034 89.2504 6.70547C90.059 6.71288 91.695 7.25288 92.4146 7.67685C92.447 7.69588 93.2401 8.45392 93.3758 8.57088C93.9074 7.94302 94.7864 6.84979 95.6143 6.66469Z" fill="#FEF5DE"/>
<path d="M73.4798 6.71807C73.6454 6.6957 73.585 6.68273 73.7245 6.762C73.8203 7.03651 73.4836 12.1566 73.4562 12.7598C74.3208 11.8009 75.206 9.83691 75.5104 8.57471C75.6119 8.15562 75.6829 7.39474 75.8578 7.04726C76.0688 6.94037 80.0828 7.1995 80.625 7.24689C80.6368 7.96495 80.4749 8.87121 80.3722 9.60244C80.2172 10.6835 80.0765 11.7665 79.9495 12.8511C79.7373 14.6953 79.6595 17.0716 79.3376 18.8475C79.2231 19.4743 79.0245 20.0833 78.7481 20.6584C77.8729 22.5102 76.6029 23.5243 75.4339 24.9971C74.1938 25.0515 70.7619 24.3204 69.7068 23.6361C69.4298 23.4971 69.1067 23.3526 68.887 23.1489C68.478 22.7702 67.9165 21.7489 67.9165 21.2223C67.9171 20.655 69.0806 19.2556 69.4877 18.866C69.9178 19.0656 70.4127 19.4292 70.8964 19.6293C72.0306 20.0985 73.8701 20.3788 75.0909 20.4979C75.0766 19.682 74.9309 18.6376 74.8811 17.7692C74.7921 16.2263 74.8661 14.8474 74.8798 13.3174C73.9367 14.8421 71.9758 16.5465 71.2712 18.2963C70.3791 18.2295 69.8917 18.1732 69.1223 17.7053C68.8863 16.5137 68.7948 14.2828 68.75 13.0411C68.6909 11.3845 68.59 9.11316 68.727 7.47351C70.4737 7.36354 71.7897 7.31763 73.4798 6.71807Z" fill="#FEF5DE"/>
<path d="M116.542 6.66487C117.212 6.65962 118.135 6.83632 118.83 6.86926C120.017 6.92554 121.21 6.94599 122.397 6.96663C122.296 7.16156 121.734 7.94271 121.944 8.07462C124.013 9.37507 124.304 11.4454 123.76 13.7664C123.059 16.7488 121.325 17.0854 118.883 18.5223C118.757 18.6123 118.528 18.759 118.385 18.7655C113.616 18.985 109.218 15.0658 112.316 10.3952C113.074 9.25174 115.321 6.92777 116.542 6.66487ZM119.124 15.85C119.158 15.849 119.306 15.8545 119.316 15.8293C119.674 14.8974 119.721 13.5127 119.656 12.5343C119.52 10.5068 118.331 9.60843 116.492 9.10198C115.425 11.2743 115.406 13.9093 117.822 15.3242C118.177 15.5321 118.732 15.6701 119.124 15.85Z" fill="#FEF5DE"/>
<path d="M60.4103 6.42051C61.1317 6.44992 61.8626 6.50936 62.5953 6.56521C63.8888 6.66673 65.4171 6.67253 66.4112 7.63317C67.4434 8.66442 67.0524 9.79391 66.9186 10.9546C66.7188 12.6874 66.7598 12.7932 65.0473 13.4335C63.7208 13.9292 62.759 13.9411 61.3621 13.9326C62.4315 15.3858 63.8596 15.8115 65.4694 14.9279C65.7047 14.7989 66.1093 14.5494 66.3589 14.5311L66.4181 14.6038C66.4125 14.8411 66.3085 15.0705 66.222 15.2928C65.6991 16.4881 65.0666 17.3217 63.9287 18.0263C62.876 18.6782 60.5011 18.6898 59.3711 18.3717C58.5363 18.1281 57.8347 17.5626 57.4232 16.8017C57.2097 16.4143 56.9976 15.7169 56.9441 15.2904C56.7926 14.082 56.7492 9.96524 57.0449 8.97204C57.6219 8.35302 59.2452 7.09397 59.9515 6.51498C60.0143 6.46358 60.3113 6.43021 60.4103 6.42051ZM60.8541 12.5329C61.5202 12.562 62.4272 12.6027 63.0746 12.5108C63.3255 12.4484 63.3535 12.3962 63.3796 12.1294C63.5166 10.7194 62.7416 9.42172 61.2152 9.3506C61.0546 10.2826 60.8759 11.5852 60.8541 12.5329Z" fill="#FEF5DE"/>
<path d="M48.5549 6.42873C49.7118 6.37572 51.5355 6.42515 52.5646 6.72493C54.1597 7.18961 55.4728 9.03315 55.251 10.664C55.1967 11.0632 53.3068 11.2771 52.931 11.3878C52.3632 11.5553 51.8434 11.8132 51.2702 11.8643C51.2702 11.8643 51.1335 11.6112 51.1221 11.592C50.6666 10.7821 50.5385 10.4643 49.6351 10.1667C49.2924 13.0377 48.6775 15.1117 52.4472 15.3534C53.2414 15.4043 53.8699 15.0068 54.3991 14.4838C54.5104 14.3744 54.5261 14.3618 54.6744 14.3134C55.0251 14.8985 53.3803 17.1797 52.8187 17.6069C51.5 18.6098 50.2179 18.6085 48.6109 18.5295C46.7826 18.4397 45.3678 17.2672 44.9559 15.4897C44.6323 13.6497 44.7536 11.1705 44.9124 9.2785C45.4183 8.62562 47.7813 6.53086 48.5549 6.42873Z" fill="#FEF5DE"/>
<path d="M108.6 6.64275L108.711 6.68569C108.942 7.1728 108.742 9.24371 108.751 9.905C108.786 12.3446 108.758 14.7977 109.036 17.225C109.125 18.0044 109.059 18.1839 108.266 18.2795C107.035 18.4353 105.795 18.6767 104.563 18.782C103.811 18.8463 104.15 17.5168 104.182 17.0487C104.206 16.4335 104.213 15.8187 104.239 15.2035C104.303 13.631 104.194 12.0842 104.216 10.5052C103.37 10.5785 102.84 10.6187 102.001 10.5225C102.033 10.0579 102.253 9.19447 102.374 8.74041C103.95 8.41215 107.268 7.51639 108.6 6.64275Z" fill="#FEF5DE"/>
<path d="M41.7865 6.71572L41.896 6.72165C42.0857 6.99159 42.0215 8.37873 42.0077 8.79806C41.9325 11.0903 42.007 13.3798 42.1553 15.6679C42.2091 16.4971 42.3006 17.3277 42.262 18.1578C41.0517 18.4059 38.6467 18.7154 37.3995 18.8326C37.3976 18.2824 37.4482 17.6424 37.4792 17.0866C37.4719 16.1146 37.5605 15.1363 37.5498 14.1715C37.5359 12.9173 37.4482 11.7348 37.5264 10.4768C36.7763 10.5993 35.9906 10.5834 35.2358 10.5306C35.3014 10.1998 35.4822 8.79942 35.8473 8.71786C37.8726 8.26516 39.9236 7.6496 41.7865 6.71572Z" fill="#FEF5DE"/>
<path d="M105.359 0.541739C106.243 0.282081 107.199 0.515251 107.862 1.15188C108.524 1.7885 108.789 2.72985 108.556 3.61505C108.322 4.50024 107.626 5.19198 106.735 5.42516C105.385 5.7782 104 4.99044 103.624 3.65607C103.248 2.32175 104.021 0.934932 105.359 0.541739Z" fill="#FEF5DE"/>
<path d="M38.6621 0.543577C40.0114 0.165145 41.4149 0.941386 41.8006 2.27939C42.1862 3.61739 41.4086 5.01286 40.0618 5.39995C38.7088 5.78882 37.2949 5.0128 36.9075 3.66867C36.5201 2.32452 37.3065 0.92374 38.6621 0.543577Z" fill="#FEF5DE"/>
</svg>
